<svg xmlns="http://www.w3.org/2000/svg" style="display:none">
  <!-- 1 колонка -->
  <symbol id="icon-columns1" viewBox="0 0 37 37">
    <path d="M2.59082 4.68192H34.4092C35.5637 4.68192 36.5 3.74512 36.5 2.59082C36.5 1.43674 35.5637 0.5 34.4092 0.5H2.59082C1.43668 0.5 0.5 1.43668 0.5 2.59082C0.5 3.74518 1.43662 4.68192 2.59082 4.68192Z"/>
    <path d="M2.59082 12.6363H34.4092C35.5636 12.6363 36.5 11.6999 36.5 10.5455C36.5 9.39104 35.5636 8.45465 34.4092 8.45465H2.59082C1.43674 8.45465 0.5 9.39098 0.5 10.5455C0.5 11.7 1.43674 12.6363 2.59082 12.6363Z"/>
    <path d="M2.59082 20.5909H34.4092C35.5637 20.5909 36.5 19.6542 36.5 18.5001C36.5 17.3458 35.5637 16.409 34.4092 16.409H2.59082C1.43662 16.409 0.5 17.3457 0.5 18.5001C0.5 19.6542 1.43668 20.5909 2.59082 20.5909Z"/>
    <path d="M2.59082 28.5456H34.4092C35.5637 28.5456 36.5 27.6088 36.5 26.4545C36.5 25.3004 35.5637 24.3636 34.4092 24.3636H2.59082C1.43668 24.3636 0.5 25.3003 0.5 26.4545C0.5 27.6088 1.43662 28.5456 2.59082 28.5456Z"/>
    <path d="M2.59082 36.5H23.2729C24.427 36.5 25.3637 35.5637 25.3637 34.4092C25.3637 33.2547 24.427 32.3184 23.2729 32.3184H2.59082C1.43674 32.3184 0.5 33.2547 0.5 34.4092C0.5 35.5637 1.43674 36.5 2.59082 36.5Z"/>
  </symbol>
  
  <!-- 2 колонки -->
  <symbol id="icon-columns2" viewBox="0 0 41 37">
    <path d="M2.59082 4.68192H16.909C18.0649 4.68192 19.0001 3.7467 19.0001 2.59082C19.0001 1.43481 18.0648 0.5 16.909 0.5H2.59082C1.43493 0.5 0.5 1.43493 0.5 2.59082C0.5 3.74658 1.43481 4.68192 2.59082 4.68192Z"/>
    <path d="M2.59082 12.6363H16.909C18.0648 12.6363 19.0001 11.7015 19.0001 10.5455C19.0001 9.38947 18.0648 8.45465 16.909 8.45465H2.59082C1.43493 8.45465 0.5 9.38958 0.5 10.5455C0.5 11.7014 1.43493 12.6363 2.59082 12.6363Z"/>
    <path d="M23.2727 4.68192H37.591C38.747 4.68192 39.6818 3.74658 39.6818 2.59082C39.6818 1.43493 38.7469 0.5 37.591 0.5H23.2727C22.117 0.5 21.1816 1.43481 21.1816 2.59082C21.1816 3.7467 22.1169 4.68192 23.2727 4.68192Z"/>
    <path d="M2.59082 20.591H16.909C18.0648 20.591 19.0001 19.6562 19.0001 18.5002C19.0001 17.3443 18.0649 16.4091 16.909 16.4091H2.59082C1.43481 16.4091 0.5 17.3444 0.5 18.5002C0.5 19.656 1.43493 20.591 2.59082 20.591Z"/>
    <path d="M2.59082 28.5456H16.909C18.0649 28.5456 19.0001 27.6104 19.0001 26.4545C19.0001 25.2985 18.0648 24.3637 16.909 24.3637H2.59082C1.43493 24.3637 0.5 25.2986 0.5 26.4545C0.5 27.6103 1.43481 28.5456 2.59082 28.5456Z"/>
    <path d="M2.59082 36.5H16.909C18.0648 36.5 19.0001 35.5652 19.0001 34.4092C19.0001 33.2532 18.0648 32.3184 16.909 32.3184H2.59082C1.43493 32.3184 0.5 33.2533 0.5 34.4092C0.5 35.5651 1.43493 36.5 2.59082 36.5Z"/>
    <path d="M23.2727 4.68192H37.591C38.747 4.68192 39.6818 3.74658 39.6818 2.59082C39.6818 1.43493 38.7469 0.5 37.591 0.5H23.2727C22.117 0.5 21.1816 1.43481 21.1816 2.59082C21.1816 3.7467 22.1169 4.68192 23.2727 4.68192Z"/>
    <path d="M23.2727 12.6363H37.591C38.7469 12.6363 39.6818 11.7014 39.6818 10.5455C39.6818 9.38958 38.7469 8.45465 37.591 8.45465H23.2727C22.117 8.45465 21.1816 9.38946 21.1816 10.5455C21.1816 11.7015 22.117 12.6363 23.2727 12.6363Z"/>
    <path d="M23.2727 20.591H37.591C38.7469 20.591 39.6818 19.656 39.6818 18.5002C39.6818 17.3444 38.747 16.4091 37.591 16.4091H23.2727C22.1169 16.4091 21.1816 17.3443 21.1816 18.5002C21.1816 19.6562 22.117 20.591 23.2727 20.591Z"/>
    <path d="M23.2727 28.5456H37.591C38.747 28.5456 39.6818 27.6103 39.6818 26.4545C39.6818 25.2986 38.7469 24.3637 37.591 24.3637H23.2727C22.117 24.3637 21.1816 25.2985 21.1816 26.4545C21.1816 27.6104 22.1169 28.5456 23.2727 28.5456Z"/>
    <path d="M23.2727 36.5H37.591C38.7469 36.5 39.6818 35.5651 39.6818 34.4092C39.6818 33.2533 38.7469 32.3184 37.591 32.3184H23.2727C22.117 32.3184 21.1816 33.2532 21.1816 34.4092C21.1816 35.5652 22.117 36.5 23.2727 36.5Z"/>
  </symbol>
  
  <!-- Уменьшить шрифт -->
  <symbol id="icon-font-minus" viewBox="0 0 51 35">
    <path d="M50.6932 17.465V19.4172C50.6932 20.4974 49.8212 21.3694 48.741 21.3694H35.0753C33.9951 21.3694 33.1231 20.4974 33.1231 19.4172V17.465C33.1231 16.3847 33.9951 15.5127 35.0753 15.5127H48.741C49.8212 15.5127 50.6932 16.3847 50.6932 17.465ZM31.0101 33.7404C31.1131 34.1589 31.1296 34.4784 31.0637 34.6846C30.9915 34.8907 30.7689 35 30.3916 35H23.9907C23.4052 35 23.0094 34.866 22.8012 34.6063C22.5951 34.3403 22.4054 33.926 22.2343 33.3714L20.5769 27.2241H10.1292L8.4017 33.526C8.22853 34.0868 8.00589 34.4764 7.72965 34.6846C7.45547 34.8907 7.07616 35 6.59377 35H0.866945C0.48763 35 0.229944 34.9217 0.0938853 34.7629C-0.0462961 34.6063 -0.0298041 34.2311 0.145423 33.6332L10.1065 1.52756C10.2777 1.03693 10.4838 0.659677 10.725 0.393745C10.9641 0.133997 11.43 0 12.1206 0H18.6246C19.3462 0 19.8203 0.144305 20.0429 0.422606C20.2656 0.702969 20.4635 1.08847 20.6366 1.5791L31.0101 33.7404ZM18.9998 21.3694L15.5221 8.47685H15.2665L11.7331 21.3694H18.9998Z"/>
  </symbol>
  
  <!-- Увеличить шрифт -->
  <symbol id="icon-font-plus" viewBox="0 0 51 35">
    <path d="M50.6885 17.4645V19.4156C50.6885 20.4957 49.8155 21.3667 48.7374 21.3667H44.8332V25.2709C44.8332 26.351 43.9602 27.222 42.8821 27.222H40.931C39.8509 27.222 38.9799 26.349 38.9799 25.2709V21.3667H35.0757C33.9956 21.3667 33.1246 20.4936 33.1246 19.4156V17.4645C33.1246 16.3844 33.9976 15.5134 35.0757 15.5134H38.9799V11.6091C38.9799 10.529 39.8529 9.65804 40.931 9.65804H42.8821C43.9622 9.65804 44.8332 10.5311 44.8332 11.6091V15.5134H48.7374C49.8155 15.5113 50.6885 16.3844 50.6885 17.4645ZM31.007 33.7392C31.1106 34.1574 31.1268 34.4782 31.0598 34.6833C30.9867 34.8904 30.7654 35 30.3878 35H23.9863C23.4016 35 23.0037 34.866 22.7966 34.6061C22.5895 34.3402 22.4007 33.926 22.2301 33.3717L20.5734 27.224H10.1296L8.4039 33.526C8.2293 34.0864 8.008 34.4762 7.73188 34.6833C7.45576 34.8904 7.07813 35 6.59493 35H0.867506C0.487843 35 0.229998 34.9228 0.0939691 34.7625C-0.0461202 34.6061 -0.029878 34.2305 0.144726 33.6316L10.1073 1.5288C10.2799 1.0395 10.4849 0.659841 10.7265 0.393874C10.9641 0.133998 11.429 0 12.1213 0H18.6243C19.3471 0 19.8181 0.14415 20.0435 0.424328C20.2668 0.704507 20.4638 1.09026 20.6363 1.57956L31.007 33.7392ZM18.9979 21.3687L15.5221 8.47642H15.2663L11.7336 21.3687H18.9979Z"/>
  </symbol>
  
  <!-- Полный экран -->
  <symbol id="icon-fullscreen" viewBox="0 0 40 40">
    <path d="M26.089 17.4017C26.5445 17.8566 27.2826 17.8564 27.7379 17.4012L33.3369 11.8023L35.1311 13.5952C35.4996 13.9637 36.0425 14.0966 36.54 13.9416C37.0374 13.7852 37.4072 13.3673 37.4996 12.8543L39.5607 1.47697C39.6337 1.07066 39.5034 0.65529 39.2105 0.365035C38.9188 0.0734732 38.5021 -0.0541771 38.0971 0.021286L26.7772 2.14234C26.2655 2.23871 25.8501 2.60859 25.6965 3.1058C25.5429 3.60203 25.6769 4.14366 26.0441 4.51077L27.837 6.30367L22.2353 11.9032C21.7795 12.3588 21.7797 13.0979 22.2357 13.5534L26.089 17.4017Z"/>
    <path d="M13.4914 22.5986C13.0358 22.1436 12.2977 22.1437 11.8424 22.5991L6.24371 28.1979L4.44951 26.4049C4.08085 26.0363 3.53807 25.9035 3.0407 26.0584C2.54316 26.2147 2.17353 26.6327 2.08091 27.1457L0.0198067 38.5231C-0.0529613 38.9293 0.0772207 39.3447 0.370089 39.6349C0.661815 39.9265 1.0785 40.0543 1.48341 39.9787L12.8034 37.8576C13.3153 37.7613 13.7304 37.3914 13.8842 36.8941C14.0378 36.3979 13.9037 35.8564 13.5364 35.4892L11.7436 33.6963L17.3512 28.1057C17.8081 27.6502 17.8085 26.9103 17.3521 26.4544L13.4914 22.5986Z"/>
    <path d="M2.08101 12.8544C2.17338 13.3674 2.54318 13.7853 3.04063 13.9417C3.53808 14.0967 4.08094 13.9638 4.44944 13.5953L6.24373 11.8024L11.8427 17.4012C12.2979 17.8564 13.036 17.8567 13.4915 17.4018L17.3449 13.5535C17.8009 13.098 17.8011 12.359 17.3454 11.9033L11.7436 6.3038L13.5365 4.5109C13.9037 4.14379 14.0377 3.60215 13.8841 3.10593C13.7305 2.60872 13.3151 2.23884 12.8035 2.14247L1.48351 0.0214152C1.07851 -0.0540479 0.66183 0.0735206 0.370105 0.365164C0.0772359 0.655419 -0.0531094 1.07079 0.0199036 1.4771L2.08101 12.8544Z"/>
    <path d="M37.4995 27.1457C37.4069 26.6327 37.0372 26.2148 36.5397 26.0584C36.0423 25.9035 35.4996 26.0363 35.1309 26.4048L33.3367 28.1977L27.7379 22.5989C27.2827 22.1436 26.5445 22.1435 26.089 22.5984L22.2283 26.4544C21.7719 26.9103 21.7722 27.6501 22.2292 28.1057L27.8368 33.6963L26.044 35.4892C25.6767 35.8563 25.5426 36.3979 25.6962 36.894C25.85 37.3913 26.2652 37.7612 26.777 37.8576L38.0969 39.9786C38.5018 40.0543 38.9185 39.9264 39.2102 39.6349C39.5031 39.3445 39.6333 38.9292 39.5605 38.5231L37.4995 27.1457Z"/>
  </symbol>

  <symbol id="icon-play" viewBox="0 0 24 24">
	<polygon points="5,3 19,12 5,21"></polygon>
</symbol>

<symbol id="icon-pause" viewBox="0 0 24 24">
	<rect x="5" y="4" width="5" height="16"></rect>
	<rect x="14" y="4" width="5" height="16"></rect>
</symbol>

</svg>